<svg xmlns="http://www.w3.org/2000/svg" viewBox="0 0 200 48" fill="none">
  <!-- ── LOGO PLACEHOLDER ───────────────────────────────────────────────────── -->
  <!-- Replace this entire file with your practice logo SVG, or swap the <img>  -->
  <!-- src in src/components/layout/Navbar.tsx to point to logo.png / logo.webp  -->
  <!-- Recommended logo size: height 36–48px, any width, transparent background  -->
  <!-- ─────────────────────────────────────────────────────────────────────────  -->

  <!-- Tooth icon -->
  <path d="M24 6C19 6 15 9 13 13C11 17 11 22 13 27C14.5 31 15 35 15 38C15 41 16.5 42 18 42C19.5 42 20.5 40 21 37L22 31H26L27 37C27.5 40 28.5 42 30 42C31.5 42 33 41 33 38C33 35 33.5 31 35 27C37 22 37 17 35 13C33 9 29 6 24 6Z" fill="#1B2D4F"/>
  <path d="M20 14C20 14 21 18 24 18C27 18 28 14 28 14" stroke="#C9A96E" stroke-width="1.5" stroke-linecap="round"/>

  <!-- Practice name placeholder text -->
  <text x="44" y="20" font-family="Georgia, serif" font-size="13" font-weight="600" fill="#1B2D4F">YOUR PRACTICE</text>
  <text x="44" y="36" font-family="Georgia, serif" font-size="11" font-weight="400" fill="#C9A96E" letter-spacing="2">DENTISTRY</text>
</svg>
